<svg xmlns="http://www.w3.org/2000/svg" viewBox="0 -30 226.23 200">
  <!-- Original Valorant Logo -->
  <g transform="translate(0, -30)">
    <path d="M324.59,309.28c.69-.41,1.14.42,1.51.86q36.11,45.18,72.25,90.33a.72.72,0,0,1-.55,1.25q-17.29,0-34.58,0a3,3,0,0,1-2.37-1.17L325,355.72a3.18,3.18,0,0,1-.74-2.17q0-21.65,0-43.31C324.24,309.9,324.22,309.46,324.59,309.28Z" transform="translate(-270.88 -309.17)" style="fill:#ff4655"/>
    <path d="M435.93,309.21a.74.74,0,0,1,1,.79q0,21.66,0,43.33a3.38,3.38,0,0,1-.68,2.31l-10.91,13.64a3.09,3.09,0,0,1-2.59,1.17c-11.45,0-22.9,0-34.35,0a.72.72,0,0,1-.56-1.25q23.82-29.8,47.66-59.58A1.19,1.19,0,0,1,435.93,309.21Z" transform="translate(-270.88 -309.17)" style="fill:#ff4655"/>
    <path d="M356.76,426.56a16.23,16.23,0,1,1-12.45,9.64,16.29,16.29,0,0,1,12.45-9.64m.88,5.47a10.5,10.5,0,0,0-7.92,6.24,11,11,0,0,0,.75,10.1,10.42,10.42,0,0,0,7.09,4.8,10.22,10.22,0,0,0,8.38-2.37,10.88,10.88,0,0,0-.49-16.78A10.2,10.2,0,0,0,357.64,432Z" transform="translate(-270.88 -309.17)" style="fill:#ff4655"/>
    <path d="M270.88,427.31c1.35-.37,2.78-.07,4.16-.18.49.07,1.24-.19,1.52.37a18.23,18.23,0,0,1,0,2.19q0,9.55,0,19.11l16.74-20.94a1.61,1.61,0,0,1,1.17-.69c1.6-.07,3.21,0,4.81,0a2.8,2.8,0,0,1,1.78.3c-1.87,2.46-3.84,4.83-5.76,7.26l-17.2,21.53a12.61,12.61,0,0,1-1.31,1.54c-.5.41-1.2.28-1.8.32-1.38,0-2.78.07-4.16-.1Z" transform="translate(-270.88 -309.17)" style="fill:#ff4655"/>
    <path d="M309.66,428.42a3.15,3.15,0,0,1,2.58-1.28c1.24,0,2.48,0,3.72,0,.43,0,.67.4.61.77v29.34c.06.38-.17.84-.61.79q-2.3,0-4.6,0a1.68,1.68,0,0,1-1.32-.8l-8-10q-4,5-8.08,10.11a1.55,1.55,0,0,1-1.2.67c-1.76,0-3.52,0-5.28,0-.43,0-1,.11-1.24-.34,7.75-9.81,15.6-19.53,23.39-29.31m-4.37,14.19c1.82,2.26,3.61,4.55,5.45,6.8q0-6.81,0-13.62Q308,439.19,305.29,442.61Z" transform="translate(-270.88 -309.17)" style="fill:#ff4655"/>
    <path d="M323.5,427.92c0-.35.15-.77.55-.76,1.54,0,3.09,0,4.64,0a.64.64,0,0,1,.65.79q0,12.29,0,24.59c4.29,0,8.58,0,12.86,0a.36.36,0,0,1,.31.63c-1.12,1.44-2.27,2.85-3.4,4.28a1.67,1.67,0,0,1-1.49.61c-4.52,0-9,0-13.56,0-.42,0-.59-.43-.55-.78Q323.5,442.6,323.5,427.92Z" transform="translate(-270.88 -309.17)" style="fill:#ff4655"/>
    <path d="M380.65,427.93a.64.64,0,0,1,.72-.79h23.44c.36-.05.79.18.75.59,0,2.12,0,4.24,0,6.36a1.85,1.85,0,0,1-.53,1.32c-2.26,2.79-4.47,5.61-6.74,8.39-.11.2-.48.46-.2.68,3.42,4.3,6.86,8.57,10.28,12.87.25.21.25.7-.15.68-2,0-4.05,0-6.08,0-.79,0-1.24-.73-1.68-1.27q-4.71-5.9-9.43-11.8c-.23-.29-.59-.71-.27-1.06,3-3.76,6-7.49,9-11.24-4.41,0-8.83,0-13.24,0-.08,8.27,0,16.55,0,24.82a.58.58,0,0,1-.69.59c-1.53,0-3.06,0-4.59,0-.41,0-.57-.45-.52-.79Q380.65,442.59,380.65,427.93Z" transform="translate(-270.88 -309.17)" style="fill:#ff4655"/>
    <path d="M413.36,427.95a.63.63,0,0,1,.63-.79c1.46,0,2.92,0,4.38,0a1.62,1.62,0,0,1,1.4.67l21.88,27.37c.63.84,1.38,1.6,1.93,2.5l-.21.34c-1.77.09-3.54,0-5.31,0-.7,0-1.54.07-2-.57-2.74-3.4-5.45-6.82-8.18-10.23q-4,5-8.08,10.1a1.57,1.57,0,0,1-1.2.68c-1.53,0-3.05,0-4.58,0a.63.63,0,0,1-.65-.8q0-14.66,0-29.32m5.82,7.86q0,6.81,0,13.61,2.73-3.4,5.45-6.81C422.81,440.34,421,438.06,419.18,435.8Z" transform="translate(-270.88 -309.17)" style="fill:#ff4655"/>
    <path d="M439.07,428c0-.34.11-.78.51-.79,1.46-.06,2.91,0,4.37,0a1.68,1.68,0,0,1,1.5.62q8.42,10.51,16.82,21,0-10.43,0-20.86a.64.64,0,0,1,.7-.79c1.54,0,3.08,0,4.62,0,.39,0,.54.45.49.79v29.3c0,.33-.1.78-.5.79-1.53,0-3.06,0-4.59,0a1.53,1.53,0,0,1-1.28-.62q-8.41-10.5-16.8-21c0,4.1,0,8.21,0,12.31.11.37-.41.68-.63.35-1.61-2-3.17-4-4.75-5.93a1.91,1.91,0,0,1-.44-1.42C439.07,437.14,439.06,432.55,439.07,428Z" transform="translate(-270.88 -309.17)" style="fill:#ff4655"/>
    <path d="M472.1,427.73c0-.4.38-.63.73-.58H492.1a1.66,1.66,0,0,1,1.48.61c1.14,1.42,2.29,2.83,3.4,4.27a.37.37,0,0,1-.3.65c-3.36,0-6.72,0-10.08,0,0,8.19,0,16.38,0,24.58a.63.63,0,0,1-.63.8c-1.53,0-3.07,0-4.6,0a.54.54,0,0,1-.58-.58c-.05-8.26,0-16.53,0-24.79-2.65,0-5.3,0-7.95,0-.35,0-.77-.2-.72-.6Q472.07,429.91,472.1,427.73Z" transform="translate(-270.88 -309.17)" style="fill:#ff4655"/>
  </g>
  
  <!-- Added TRACKER text -->
  <g transform="translate(20,170.000000) scale(0.02,-0.02)"
fill="#ff4655" stroke="none">
<path d="M4395 1685 c-22 -8 -48 -15 -58 -15 -23 0 -144 -60 -202 -100 -107
-74 -211 -231 -251 -380 -22 -81 -24 -240 -5 -330 8 -36 33 -105 57 -155 69
-146 167 -246 309 -314 103 -49 133 -55 285 -55 161 -1 226 15 345 84 62 35
165 128 165 147 0 17 -145 143 -165 143 -9 0 -39 -20 -67 -45 -27 -24 -78 -58
-114 -75 -57 -27 -74 -30 -156 -30 -62 0 -107 6 -138 17 -313 116 -401 510
-169 757 160 171 405 180 586 21 28 -25 55 -45 60 -45 11 0 144 114 154 133
14 24 2 42 -64 97 -63 52 -210 130 -245 130 -11 0 -36 7 -55 15 -48 20 -217
20 -272 0z"/>
<path d="M180 1655 c-15 -18 -30 -174 -18 -197 8 -16 26 -18 168 -18 87 0 165
-3 174 -6 14 -5 16 -61 16 -524 0 -469 2 -519 17 -531 20 -17 186 -20 203 -3
7 7 11 168 10 524 0 369 3 516 11 526 9 11 55 14 215 14 188 0 204 1 204 18 0
15 -69 109 -136 185 l-24 27 -414 0 c-351 0 -415 -2 -426 -15z"/>
<path d="M1347 1663 c-4 -3 -7 -291 -7 -639 l0 -634 24 -15 c43 -28 205 -13
206 19 0 6 0 238 0 515 0 365 3 507 11 517 9 11 60 14 258 14 246 0 286 -5
266 -34 -11 -15 -187 -244 -284 -369 -34 -42 -61 -84 -61 -93 0 -9 35 -61 78
-117 370 -482 338 -445 385 -453 66 -12 239 -7 248 7 7 13 -67 116 -294 407
l-119 153 26 37 c15 20 48 65 74 98 26 34 83 108 127 165 l80 104 0 160 0 160
-506 3 c-278 1 -509 -1 -512 -5z"/>
<path d="M7607 1663 c-4 -3 -7 -293 -7 -643 l0 -638 30 -12 c37 -15 162 -9
184 9 14 12 16 66 16 531 0 463 2 519 16 524 9 3 125 6 259 6 189 0 245 -3
254 -13 8 -10 -1 -27 -37 -73 -26 -32 -77 -97 -112 -143 -36 -46 -91 -118
-123 -160 -89 -116 -89 -99 -5 -208 40 -52 84 -110 98 -128 182 -239 255 -327
277 -336 21 -8 141 -13 236 -10 15 1 30 8 33 16 4 8 -36 69 -100 152 -58 76
-130 169 -159 206 -28 38 -74 96 -100 129 -51 64 -53 82 -17 123 19 20 35 42
188 244 l87 114 3 144 c3 102 0 148 -8 159 -11 12 -89 14 -510 14 -273 0 -500
-3 -503 -7z"/>
<path d="M2657 1642 c-15 -17 -17 -76 -17 -645 0 -609 1 -627 19 -637 25 -13
187 -13 212 0 20 11 135 155 305 382 27 36 39 45 54 40 16 -6 103 -113 266
-330 78 -103 78 -103 230 -100 113 3 129 5 129 20 0 14 -173 243 -618 817 -53
69 -152 197 -218 285 -138 180 -147 186 -267 186 -64 0 -82 -4 -95 -18z m327
-523 c42 -55 76 -106 76 -113 0 -14 -133 -194 -157 -213 -9 -7 -20 -10 -24 -7
-10 6 -12 427 -3 437 13 13 35 -9 108 -104z"/>
<path d="M5275 1648 c-3 -7 -4 -301 -3 -653 l3 -640 92 -3 c149 -4 133 -83
133 647 0 596 -1 629 -18 644 -24 21 -200 25 -207 5z"/>
<path d="M6080 1647 c-30 -14 -36 -22 -276 -332 -29 -38 -92 -119 -139 -180
-47 -60 -85 -119 -85 -130 0 -11 44 -77 98 -146 53 -70 153 -200 222 -290 69
-90 137 -176 152 -191 l27 -29 133 3 c110 3 133 6 136 18 1 9 -23 50 -55 91
-157 205 -313 409 -355 463 -26 34 -47 70 -47 81 -1 15 227 323 347 470 75 92
113 148 110 163 -3 15 -18 17 -123 19 -76 1 -129 -2 -145 -10z"/>
<path d="M6520 1628 c-1 -7 0 -294 0 -637 0 -486 3 -627 13 -633 6 -4 167 -8
357 -8 l346 0 36 38 c68 71 147 184 136 194 -2 1 -151 5 -333 8 l-330 5 -3
139 c-2 90 1 143 8 150 7 7 85 10 232 9 128 -1 229 2 240 8 16 8 18 24 18 114
0 58 -1 106 -2 107 -2 1 -113 5 -248 8 l-245 5 -3 125 c-1 69 2 131 7 139 7
11 67 14 297 18 191 2 292 7 301 15 10 8 13 36 11 107 l-3 96 -417 3 c-331 2
-418 0 -418 -10z"/>
</g>
</svg>