<svg xmlns="http://www.w3.org/2000/svg" viewBox="0 0 226.23 149.67"><title>Valorant logo - Brandlogos.net</title><path d="M324.59,309.28c.69-.41,1.14.42,1.51.86q36.11,45.18,72.25,90.33a.72.72,0,0,1-.55,1.25q-17.29,0-34.58,0a3,3,0,0,1-2.37-1.17L325,355.72a3.18,3.18,0,0,1-.74-2.17q0-21.65,0-43.31C324.24,309.9,324.22,309.46,324.59,309.28Z" transform="translate(-270.88 -309.17)" style="fill:#ff4655"/><path d="M435.93,309.21a.74.74,0,0,1,1,.79q0,21.66,0,43.33a3.38,3.38,0,0,1-.68,2.31l-10.91,13.64a3.09,3.09,0,0,1-2.59,1.17c-11.45,0-22.9,0-34.35,0a.72.72,0,0,1-.56-1.25q23.82-29.8,47.66-59.58A1.19,1.19,0,0,1,435.93,309.21Z" transform="translate(-270.88 -309.17)" style="fill:#ff4655"/><path d="M356.76,426.56a16.23,16.23,0,1,1-12.45,9.64,16.29,16.29,0,0,1,12.45-9.64m.88,5.47a10.5,10.5,0,0,0-7.92,6.24,11,11,0,0,0,.75,10.1,10.42,10.42,0,0,0,7.09,4.8,10.22,10.22,0,0,0,8.38-2.37,10.88,10.88,0,0,0-.49-16.78A10.2,10.2,0,0,0,357.64,432Z" transform="translate(-270.88 -309.17)" style="fill:#ff4655"/><path d="M270.88,427.31c1.35-.37,2.78-.07,4.16-.18.49.07,1.24-.19,1.52.37a18.23,18.23,0,0,1,0,2.19q0,9.55,0,19.11l16.74-20.94a1.61,1.61,0,0,1,1.17-.69c1.6-.07,3.21,0,4.81,0a2.8,2.8,0,0,1,1.78.3c-1.87,2.46-3.84,4.83-5.76,7.26l-17.2,21.53a12.61,12.61,0,0,1-1.31,1.54c-.5.41-1.2.28-1.8.32-1.38,0-2.78.07-4.16-.1Z" transform="translate(-270.88 -309.17)" style="fill:#ff4655"/><path d="M309.66,428.42a3.15,3.15,0,0,1,2.58-1.28c1.24,0,2.48,0,3.72,0,.43,0,.67.4.61.77v29.34c.06.38-.17.84-.61.79q-2.3,0-4.6,0a1.68,1.68,0,0,1-1.32-.8l-8-10q-4,5-8.08,10.11a1.55,1.55,0,0,1-1.2.67c-1.76,0-3.52,0-5.28,0-.43,0-1,.11-1.24-.34,7.75-9.81,15.6-19.53,23.39-29.31m-4.37,14.19c1.82,2.26,3.61,4.55,5.45,6.8q0-6.81,0-13.62Q308,439.19,305.29,442.61Z" transform="translate(-270.88 -309.17)" style="fill:#ff4655"/><path d="M323.5,427.92c0-.35.15-.77.55-.76,1.54,0,3.09,0,4.64,0a.64.64,0,0,1,.65.79q0,12.29,0,24.59c4.29,0,8.58,0,12.86,0a.36.36,0,0,1,.31.63c-1.12,1.44-2.27,2.85-3.4,4.28a1.67,1.67,0,0,1-1.49.61c-4.52,0-9,0-13.56,0-.42,0-.59-.43-.55-.78Q323.5,442.6,323.5,427.92Z" transform="translate(-270.88 -309.17)" style="fill:#ff4655"/><path d="M380.65,427.93a.64.64,0,0,1,.72-.79h23.44c.36-.05.79.18.75.59,0,2.12,0,4.24,0,6.36a1.85,1.85,0,0,1-.53,1.32c-2.26,2.79-4.47,5.61-6.74,8.39-.11.2-.48.46-.2.68,3.42,4.3,6.86,8.57,10.28,12.87.25.21.25.7-.15.68-2,0-4.05,0-6.08,0-.79,0-1.24-.73-1.68-1.27q-4.71-5.9-9.43-11.8c-.23-.29-.59-.71-.27-1.06,3-3.76,6-7.49,9-11.24-4.41,0-8.83,0-13.24,0-.08,8.27,0,16.55,0,24.82a.58.58,0,0,1-.69.59c-1.53,0-3.06,0-4.59,0-.41,0-.57-.45-.52-.79Q380.65,442.59,380.65,427.93Z" transform="translate(-270.88 -309.17)" style="fill:#ff4655"/><path d="M413.36,427.95a.63.63,0,0,1,.63-.79c1.46,0,2.92,0,4.38,0a1.62,1.62,0,0,1,1.4.67l21.88,27.37c.63.84,1.38,1.6,1.93,2.5l-.21.34c-1.77.09-3.54,0-5.31,0-.7,0-1.54.07-2-.57-2.74-3.4-5.45-6.82-8.18-10.23q-4,5-8.08,10.1a1.57,1.57,0,0,1-1.2.68c-1.53,0-3.05,0-4.58,0a.63.63,0,0,1-.65-.8q0-14.66,0-29.32m5.82,7.86q0,6.81,0,13.61,2.73-3.4,5.45-6.81C422.81,440.34,421,438.06,419.18,435.8Z" transform="translate(-270.88 -309.17)" style="fill:#ff4655"/><path d="M439.07,428c0-.34.11-.78.51-.79,1.46-.06,2.91,0,4.37,0a1.68,1.68,0,0,1,1.5.62q8.42,10.51,16.82,21,0-10.43,0-20.86a.64.64,0,0,1,.7-.79c1.54,0,3.08,0,4.62,0,.39,0,.54.45.49.79v29.3c0,.33-.1.78-.5.79-1.53,0-3.06,0-4.59,0a1.53,1.53,0,0,1-1.28-.62q-8.41-10.5-16.8-21c0,4.1,0,8.21,0,12.31.11.37-.41.68-.63.35-1.61-2-3.17-4-4.75-5.93a1.91,1.91,0,0,1-.44-1.42C439.07,437.14,439.06,432.55,439.07,428Z" transform="translate(-270.88 -309.17)" style="fill:#ff4655"/><path d="M472.1,427.73c0-.4.38-.63.73-.58H492.1a1.66,1.66,0,0,1,1.48.61c1.14,1.42,2.29,2.83,3.4,4.27a.37.37,0,0,1-.3.65c-3.36,0-6.72,0-10.08,0,0,8.19,0,16.38,0,24.58a.63.63,0,0,1-.63.8c-1.53,0-3.07,0-4.6,0a.54.54,0,0,1-.58-.58c-.05-8.26,0-16.53,0-24.79-2.65,0-5.3,0-7.95,0-.35,0-.77-.2-.72-.6Q472.07,429.91,472.1,427.73Z" transform="translate(-270.88 -309.17)" style="fill:#ff4655"/></svg>