<?xml version="1.0" standalone="no"?>
<!DOCTYPE svg PUBLIC "-//W3C//DTD SVG 20010904//EN"
 "http://www.w3.org/TR/2001/REC-SVG-20010904/DTD/svg10.dtd">
<svg version="1.0" xmlns="http://www.w3.org/2000/svg"
 width="900.000000pt" height="189.000000pt" viewBox="0 0 900.000000 189.000000"
 preserveAspectRatio="xMidYMid meet">
<metadata>
Created by potrace 1.10, written by Peter Selinger 2001-2011
</metadata>
<g transform="translate(0.000000,189.000000) scale(0.100000,-0.100000)"
fill="#000000" stroke="none">
<path d="M4395 1685 c-22 -8 -48 -15 -58 -15 -23 0 -144 -60 -202 -100 -107
-74 -211 -231 -251 -380 -22 -81 -24 -240 -5 -330 8 -36 33 -105 57 -155 69
-146 167 -246 309 -314 103 -49 133 -55 285 -55 161 -1 226 15 345 84 62 35
165 128 165 147 0 17 -145 143 -165 143 -9 0 -39 -20 -67 -45 -27 -24 -78 -58
-114 -75 -57 -27 -74 -30 -156 -30 -62 0 -107 6 -138 17 -313 116 -401 510
-169 757 160 171 405 180 586 21 28 -25 55 -45 60 -45 11 0 144 114 154 133
14 24 2 42 -64 97 -63 52 -210 130 -245 130 -11 0 -36 7 -55 15 -48 20 -217
20 -272 0z"/>
<path d="M180 1655 c-15 -18 -30 -174 -18 -197 8 -16 26 -18 168 -18 87 0 165
-3 174 -6 14 -5 16 -61 16 -524 0 -469 2 -519 17 -531 20 -17 186 -20 203 -3
7 7 11 168 10 524 0 369 3 516 11 526 9 11 55 14 215 14 188 0 204 1 204 18 0
15 -69 109 -136 185 l-24 27 -414 0 c-351 0 -415 -2 -426 -15z"/>
<path d="M1347 1663 c-4 -3 -7 -291 -7 -639 l0 -634 24 -15 c43 -28 205 -13
206 19 0 6 0 238 0 515 0 365 3 507 11 517 9 11 60 14 258 14 246 0 286 -5
266 -34 -11 -15 -187 -244 -284 -369 -34 -42 -61 -84 -61 -93 0 -9 35 -61 78
-117 370 -482 338 -445 385 -453 66 -12 239 -7 248 7 7 13 -67 116 -294 407
l-119 153 26 37 c15 20 48 65 74 98 26 34 83 108 127 165 l80 104 0 160 0 160
-506 3 c-278 1 -509 -1 -512 -5z"/>
<path d="M7607 1663 c-4 -3 -7 -293 -7 -643 l0 -638 30 -12 c37 -15 162 -9
184 9 14 12 16 66 16 531 0 463 2 519 16 524 9 3 125 6 259 6 189 0 245 -3
254 -13 8 -10 -1 -27 -37 -73 -26 -32 -77 -97 -112 -143 -36 -46 -91 -118
-123 -160 -89 -116 -89 -99 -5 -208 40 -52 84 -110 98 -128 182 -239 255 -327
277 -336 21 -8 141 -13 236 -10 15 1 30 8 33 16 4 8 -36 69 -100 152 -58 76
-130 169 -159 206 -28 38 -74 96 -100 129 -51 64 -53 82 -17 123 19 20 35 42
188 244 l87 114 3 144 c3 102 0 148 -8 159 -11 12 -89 14 -510 14 -273 0 -500
-3 -503 -7z"/>
<path d="M2657 1642 c-15 -17 -17 -76 -17 -645 0 -609 1 -627 19 -637 25 -13
187 -13 212 0 20 11 135 155 305 382 27 36 39 45 54 40 16 -6 103 -113 266
-330 78 -103 78 -103 230 -100 113 3 129 5 129 20 0 14 -173 243 -618 817 -53
69 -152 197 -218 285 -138 180 -147 186 -267 186 -64 0 -82 -4 -95 -18z m327
-523 c42 -55 76 -106 76 -113 0 -14 -133 -194 -157 -213 -9 -7 -20 -10 -24 -7
-10 6 -12 427 -3 437 13 13 35 -9 108 -104z"/>
<path d="M5275 1648 c-3 -7 -4 -301 -3 -653 l3 -640 92 -3 c149 -4 133 -83
133 647 0 596 -1 629 -18 644 -24 21 -200 25 -207 5z"/>
<path d="M6080 1647 c-30 -14 -36 -22 -276 -332 -29 -38 -92 -119 -139 -180
-47 -60 -85 -119 -85 -130 0 -11 44 -77 98 -146 53 -70 153 -200 222 -290 69
-90 137 -176 152 -191 l27 -29 133 3 c110 3 133 6 136 18 1 9 -23 50 -55 91
-157 205 -313 409 -355 463 -26 34 -47 70 -47 81 -1 15 227 323 347 470 75 92
113 148 110 163 -3 15 -18 17 -123 19 -76 1 -129 -2 -145 -10z"/>
<path d="M6520 1628 c-1 -7 0 -294 0 -637 0 -486 3 -627 13 -633 6 -4 167 -8
357 -8 l346 0 36 38 c68 71 147 184 136 194 -2 1 -151 5 -333 8 l-330 5 -3
139 c-2 90 1 143 8 150 7 7 85 10 232 9 128 -1 229 2 240 8 16 8 18 24 18 114
0 58 -1 106 -2 107 -2 1 -113 5 -248 8 l-245 5 -3 125 c-1 69 2 131 7 139 7
11 67 14 297 18 191 2 292 7 301 15 10 8 13 36 11 107 l-3 96 -417 3 c-331 2
-418 0 -418 -10z"/>
</g>
</svg>
